<svg width="24" height="23" viewBox="0 0 24 23" fill="none" xmlns="http://www.w3.org/2000/svg">
<path d="M16.1665 2.66652C17.2707 2.66982 18.3286 3.10989 19.1094 3.89064C19.8901 4.67138 20.3302 5.72935 20.3335 6.83348V15.1665C20.3302 16.2707 19.8901 17.3286 19.1094 18.1094C18.3286 18.8901 17.2707 19.3302 16.1665 19.3335H7.83348C6.72935 19.3302 5.67138 18.8901 4.89064 18.1094C4.10989 17.3286 3.66982 16.2707 3.66652 15.1665V6.83348C3.66982 5.72935 4.10989 4.67138 4.89064 3.89064C5.67138 3.10989 6.72935 2.66982 7.83348 2.66652H16.1665ZM16.1665 1H7.83348C4.625 1 2 3.625 2 6.83348V15.1665C2 18.375 4.625 21 7.83348 21H16.1665C19.375 21 22 18.375 22 15.1665V6.83348C22 3.625 19.375 1 16.1665 1Z" fill="white"/>
<path d="M17.6873 7.30762C17.4278 7.30762 17.174 7.23385 16.9582 7.09564C16.7423 6.95743 16.5741 6.76098 16.4748 6.53115C16.3754 6.30131 16.3494 6.04841 16.4001 5.80442C16.4507 5.56043 16.5757 5.33631 16.7593 5.1604C16.9428 4.98449 17.1767 4.86469 17.4313 4.81616C17.6859 4.76763 17.9498 4.79254 18.1896 4.88774C18.4294 4.98294 18.6344 5.14416 18.7786 5.351C18.9229 5.55785 18.9998 5.80103 18.9998 6.04981C19.0002 6.21508 18.9665 6.3788 18.9007 6.53157C18.8349 6.68433 18.7382 6.82314 18.6163 6.94001C18.4943 7.05687 18.3495 7.14951 18.1901 7.2126C18.0306 7.27568 17.8598 7.30797 17.6873 7.30762ZM12 8.14586C12.6923 8.14586 13.369 8.34259 13.9446 8.71116C14.5202 9.07974 14.9688 9.60361 15.2337 10.2165C15.4986 10.8295 15.568 11.5039 15.4329 12.1546C15.2978 12.8052 14.9645 13.4029 14.475 13.872C13.9855 14.3411 13.3618 14.6606 12.6828 14.79C12.0039 14.9195 11.3001 14.853 10.6606 14.5992C10.021 14.3453 9.47433 13.9153 9.08973 13.3637C8.70513 12.8121 8.49985 12.1636 8.49985 11.5002C8.50084 10.6108 8.86992 9.75822 9.52611 9.12937C10.1823 8.50052 11.072 8.14681 12 8.14586ZM12 6.46893C10.9617 6.46893 9.94662 6.764 9.08326 7.31684C8.2199 7.86969 7.54699 8.65546 7.14963 9.5748C6.75227 10.4941 6.64831 11.5058 6.85088 12.4817C7.05345 13.4577 7.55347 14.3542 8.28769 15.0578C9.02192 15.7614 9.95738 16.2406 10.9758 16.4348C11.9942 16.6289 13.0498 16.5292 14.0091 16.1484C14.9684 15.7676 15.7883 15.1228 16.3652 14.2954C16.9421 13.468 17.25 12.4953 17.25 11.5002C17.25 10.1658 16.6969 8.88609 15.7123 7.94255C14.7277 6.999 13.3924 6.46893 12 6.46893Z" fill="white"/>
</svg>
