<svg width="24" height="24" viewBox="0 0 24 24" fill="none" xmlns="http://www.w3.org/2000/svg">
<path d="M8.2 7.2C8.2 7.43734 8.12962 7.66934 7.99776 7.86668C7.86591 8.06402 7.67849 8.21783 7.45922 8.30866C7.23995 8.39948 6.99867 8.42324 6.76589 8.37694C6.53311 8.33064 6.31929 8.21635 6.15147 8.04853C5.98365 7.88071 5.86936 7.66689 5.82306 7.43411C5.77676 7.20133 5.80052 6.96005 5.89134 6.74078C5.98217 6.52151 6.13598 6.33409 6.33332 6.20224C6.53065 6.07038 6.76266 6 7 6C7.31826 6 7.62348 6.12643 7.84853 6.35147C8.07357 6.57652 8.2 6.88174 8.2 7.2ZM21 3.6V20.4C21 20.8243 20.8314 21.2313 20.5314 21.5314C20.2313 21.8314 19.8243 22 19.4 22H2.6C2.17565 22 1.76869 21.8314 1.46863 21.5314C1.16857 21.2313 1 20.8243 1 20.4V3.6C1 3.17565 1.16857 2.76869 1.46863 2.46863C1.76869 2.16857 2.17565 2 2.6 2H19.4C19.8243 2 20.2313 2.16857 20.5314 2.46863C20.8314 2.76869 21 3.17565 21 3.6ZM19.4 20.4V3.6H2.6V20.4H19.4ZM7 9.6C6.78783 9.6 6.58434 9.68429 6.43431 9.83431C6.28429 9.98434 6.2 10.1878 6.2 10.4V16.8C6.2 17.0122 6.28429 17.2157 6.43431 17.3657C6.58434 17.5157 6.78783 17.6 7 17.6C7.21217 17.6 7.41566 17.5157 7.56569 17.3657C7.71571 17.2157 7.8 17.0122 7.8 16.8V10.4C7.8 10.1878 7.71571 9.98434 7.56569 9.83431C7.41566 9.68429 7.21217 9.6 7 9.6ZM13 9.6C12.2798 9.59996 11.5762 9.81593 10.98 10.22C10.9363 10.028 10.8233 9.85895 10.6626 9.74509C10.502 9.63124 10.3051 9.58061 10.1094 9.60289C9.91383 9.62518 9.7333 9.71881 9.60241 9.86588C9.47151 10.0129 9.39945 10.2031 9.4 10.4V16.8C9.4 17.0122 9.48429 17.2157 9.63431 17.3657C9.78434 17.5157 9.98783 17.6 10.2 17.6C10.4122 17.6 10.6157 17.5157 10.7657 17.3657C10.9157 17.2157 11 17.0122 11 16.8V13.2C11 12.6696 11.2107 12.1609 11.5858 11.7858C11.9609 11.4107 12.4696 11.2 13 11.2C13.5304 11.2 14.0391 11.4107 14.4142 11.7858C14.7893 12.1609 15 12.6696 15 13.2V16.8C15 17.0122 15.0843 17.2157 15.2343 17.3657C15.3843 17.5157 15.5878 17.6 15.8 17.6C16.0122 17.6 16.2157 17.5157 16.3657 17.3657C16.5157 17.2157 16.6 17.0122 16.6 16.8V13.2C16.6 12.2452 16.2207 11.3295 15.5456 10.6544C14.8705 9.97929 13.9548 9.6 13 9.6Z" fill="white"/>
</svg>
